#pragma once

Note drums[] {
	/*
{NOTE_DS2, 1, 14769}, // OPENING 1
{NOTE_DS2, 1, 7149}, // OPENING 2

// OPENING 3

{NOTE_DS2, 50, 400},
{NOTE_DS2, 50, 400},
{NOTE_DS2, 50, 400},
{NOTE_DS2, 50, 400},
{NOTE_DS2, 50, 400},
{NOTE_DS2, 50, 400},
{NOTE_DS2, 50, 400},
{NOTE_DS2, 50, 400}, 


*/
{NOTE_DS2, 1, 224},
// HAAA HAHAHAAAAAAAA
{NOTE_DS2, 50, 400},
{NOTE_DS2, 50, 400},
{NOTE_DS2, 50, 400},
{NOTE_DS2, 50, 400},
{NOTE_DS2, 50, 400},
{NOTE_DS2, 50, 400},
{NOTE_CS5, 50, 175},
{NOTE_CS5, 50, 62},
{NOTE_CS5, 50, 63},

// OH I KNOW I LOVE YOU

{NOTE_DS2, 50, 400},
{NOTE_DS2, 50, 400},
{NOTE_DS2, 50, 400},
{NOTE_DS2, 50, 400},
{NOTE_DS2, 50, 400},
{NOTE_DS2, 50, 400},
{NOTE_DS2, 50, 400},
{NOTE_DS2, 50, 400},
{NOTE_DS2, 50, 400},
{NOTE_DS2, 50, 400},
{NOTE_DS2, 50, 400},
{NOTE_DS2, 50, 400},
{NOTE_DS2, 50, 400},
{NOTE_DS2, 50, 175},
{NOTE_DS3, 86, 27},
{NOTE_DS3, 86, 26},
{NOTE_DS2, 50, 400},
{NOTE_DS2, 50, 400},
{NOTE_DS2, 50, 400},






//{NOTE_DS2, 1, 224},
// CAUSE I DON'T UNDERSTAND YOU

{NOTE_DS2, 50, 400},
{NOTE_DS2, 50, 400},
{NOTE_DS2, 50, 400},
{NOTE_DS2, 50, 400},
{NOTE_DS2, 50, 400},
{NOTE_DS2, 50, 400},

// OH YOU

{NOTE_DS2, 50, 400},
{NOTE_DS2, 50, 400},
{NOTE_DS2, 50, 400},
{NOTE_DS2, 50, 400},
{NOTE_DS2, 50, 400},
{NOTE_DS2, 50, 400},
{NOTE_DS2, 50, 400},
{NOTE_DS2, 50, 400},



/*
{NOTE_CS3, 200, 250},
{NOTE_CS3, 200, 137},
{NOTE_DS3, 201, 1712},

*/

//{NOTE_DS2, 1, 674},
// WHEN WE FIRST MET
{NOTE_DS2, 50, 400},
{NOTE_DS3, 86, 27},
{NOTE_DS3, 86, 26},
{NOTE_DS4, 200, 25},
{NOTE_DS2, 50, 400},
{NOTE_DS2, 50, 400},
//{NOTE_DS2, 50, 400},
//{NOTE_DS2, 50, 400},
{NOTE_DS3, 225, 112}, // 0.75
{NOTE_DS3, 200, 25}, // 0.
{NOTE_DS3, 113, 0},
{NOTE_B4, 213, 12},
{NOTE_DS2, 50, 400},
{NOTE_DS2, 50, 400},
{NOTE_DS2, 50, 400},
{NOTE_DS2, 50, 400},


// {NOTE_DS2, 1, 224},
// CAUSE EVEN THOUGH I DIDN'T KNOW YOU YET

{NOTE_DS2, 50, 400},
{NOTE_DS2, 50, 400},
{NOTE_DS2, 50, 400},
{NOTE_DS2, 50, 400},
{NOTE_DS2, 50, 400},
{NOTE_DS2, 50, 400},
{NOTE_DS2, 50, 400},

//{NOTE_DS2, 1, 224},
// WE WERE BOUND TOGETHER THEN AND FOREVER
{NOTE_DS2, 50, 400},
{NOTE_DS2, 50, 400},
{NOTE_DS2, 50, 400},
{NOTE_DS2, 50, 400},
{NOTE_DS2, 50, 400},
{NOTE_DS2, 50, 400},
{NOTE_DS2, 50, 400},
{NOTE_DS2, 50, 400},

// AND I COULD NEVER LET YOU GO
{NOTE_DS2, 50, 400},
{NOTE_DS2, 50, 400},
{NOTE_DS2, 50, 400},
{NOTE_DS2, 50, 400},
{NOTE_DS2, 50, 400},
{NOTE_DS2, 50, 400},
{NOTE_DS2, 50, 400},
{NOTE_DS2, 50, 400},



};

/*
{NOTE_AS2, 200, 400},
{NOTE_CS3, 200, 400},
{NOTE_D3, 200, 4000},
*/













