#pragma once

Note melody[] {
	
	// OPENING 1
	{NOTE_DS4, 650, 70},
	{NOTE_DS4, 650, 70},
	{NOTE_DS4, 650, 70},
	{NOTE_AS3, 650, 70},
	{NOTE_FS3, 650, 70},
	{NOTE_CS4, 300, 70},
	{NOTE_B3, 900, 1200}, 
	{NOTE_AS3, 350, 30},
	{NOTE_DS4, 700, 70},
	{NOTE_DS4, 950, 130},
	{NOTE_AS3, 300, 30},
	{NOTE_DS4, 600, 70},
	{NOTE_AS3, 600, 30},
	{NOTE_FS3, 700, 70},
	{NOTE_CS4, 900, 70},
	{NOTE_FS3, 1100, 2000}, // 147700


	// OPENING 2 // 13U = 5850
	{NOTE_FS4, 1300, 50},
	{NOTE_F4, 310, 30},
	{NOTE_DS4, 990, 20}, // 6U
	{NOTE_DS4, 400, 50},
	{NOTE_CS4, 400, 50},
	{NOTE_DS3, 450, 450}, // 4U
	{NOTE_CS4, 250, 200},
	{NOTE_FS4, 250, 75},
	{NOTE_DS4, 200, 1725}, // 3U


	// OPENING 3 + DRUMS // 8.5U = 3825
	{NOTE_FS4, 1300, 50},
	{NOTE_F4, 310, 30},
	{NOTE_DS4, 990, 20}, // 6U

	{NOTE_DS4, 400, 50},
	{NOTE_CS4, 400, 275}, // 2.5 (round to 3 in drums)

	// HAAA HAHAHAAAAAAAA // 7U = 3150
	
	{NOTE_FS5, 225, 0},
	{NOTE_DS5, 225, 0},
	{NOTE_CS5, 225, 0},
	{NOTE_DS5, 225, 0},
	{NOTE_FS5, 225, 0},
	{NOTE_DS5, 225, 0},
	{NOTE_CS5, 225, 0},
	{NOTE_DS5, 225, 0},
	{NOTE_CS5, 225, 0},
	{NOTE_AS4, 400, 50},
	{NOTE_AS5, 500, 400},
	


// HONEY YOU KNOW I LOVE YOU // 12U
{NOTE_AS4, 450, 225},
{NOTE_AS4, 200, 25}, 
{NOTE_AS4, 200, 250}, //3U

{NOTE_FS4, 200, 130},
{NOTE_F4, 170, 170},
{NOTE_DS4, 210, 250},

{NOTE_DS4, 150, 70},
{NOTE_DS4, 150, 70},
{NOTE_AS4, 150, 75},
{NOTE_GS4, 150, 75},
{NOTE_AS4, 150, 75},
{NOTE_GS4, 150, 300},

{NOTE_AS4, 150, 75}, 
{NOTE_AS4, 150, 75},
{NOTE_AS4, 150, 75},
{NOTE_DS4, 150, 75},

{NOTE_FS4, 300, 50}, 
{NOTE_DS4, 300, 7500},



// CAUSE I DON'T UNDERSTAND YOU
{NOTE_DS5, 110, 75},

};


















